<mxfile host="app.diagrams.net" modified="2021-03-29T14:27:16.077Z" agent="5.0 (Windows NT 10.0; Win64; x64) AppleWebKit/537.36 (KHTML, like Gecko) Chrome/89.0.4389.90 Safari/537.36" etag="wWaqwOd3rmI2DfAzn4cZ" version="14.5.1" type="github" pages="4">
  <diagram id="-N2-KH0HbP3LnPa9TqIM" name="Page-1">
    <mxGraphModel dx="1662" dy="752" grid="1" gridSize="10" guides="1" tooltips="1" connect="1" arrows="1" fold="1" page="1" pageScale="1" pageWidth="827" pageHeight="1169" math="0" shadow="0">
      <root>
        <mxCell id="0" />
        <mxCell id="1" parent="0" />
        <mxCell id="C1gEovPb8g20iSFdRH8M-5" style="edgeStyle=orthogonalEdgeStyle;rounded=0;orthogonalLoop=1;jettySize=auto;html=1;exitX=1;exitY=0.5;exitDx=0;exitDy=0;fontColor=#FFFFFF;" parent="1" source="QSJ9sEYADv9X5R9XNO8_-1" target="QSJ9sEYADv9X5R9XNO8_-10" edge="1">
          <mxGeometry relative="1" as="geometry" />
        </mxCell>
        <mxCell id="QSJ9sEYADv9X5R9XNO8_-1" value="systÃ¨me" style="rounded=1;whiteSpace=wrap;html=2;fillColor=#000000;strokeColor=#FFFFFF;fontColor=#FFFFFF;" parent="1" vertex="1">
          <mxGeometry x="210" y="80" width="360" height="490" as="geometry" />
        </mxCell>
        <mxCell id="QSJ9sEYADv9X5R9XNO8_-11" style="edgeStyle=orthogonalEdgeStyle;rounded=0;orthogonalLoop=1;jettySize=auto;html=1;exitX=0.5;exitY=0.5;exitDx=0;exitDy=0;exitPerimeter=0;fontColor=none;entryX=0;entryY=0.29;entryDx=0;entryDy=0;entryPerimeter=0;" parent="1" source="QSJ9sEYADv9X5R9XNO8_-2" target="QSJ9sEYADv9X5R9XNO8_-1" edge="1">
          <mxGeometry relative="1" as="geometry">
            <mxPoint x="150" y="320" as="targetPoint" />
          </mxGeometry>
        </mxCell>
        <mxCell id="QSJ9sEYADv9X5R9XNO8_-2" value="client" style="shape=umlActor;verticalLabelPosition=bottom;verticalAlign=top;html=1;" parent="1" vertex="1">
          <mxGeometry x="60" y="30" width="30" height="60" as="geometry" />
        </mxCell>
        <mxCell id="C1gEovPb8g20iSFdRH8M-1" style="edgeStyle=orthogonalEdgeStyle;rounded=0;orthogonalLoop=1;jettySize=auto;html=1;exitX=0.5;exitY=0.5;exitDx=0;exitDy=0;exitPerimeter=0;" parent="1" source="QSJ9sEYADv9X5R9XNO8_-3" edge="1">
          <mxGeometry relative="1" as="geometry">
            <mxPoint x="150" y="160" as="targetPoint" />
          </mxGeometry>
        </mxCell>
        <mxCell id="QSJ9sEYADv9X5R9XNO8_-3" value="visiteur" style="shape=umlActor;verticalLabelPosition=bottom;verticalAlign=top;html=1;" parent="1" vertex="1">
          <mxGeometry x="60" y="130" width="30" height="60" as="geometry" />
        </mxCell>
        <mxCell id="C1gEovPb8g20iSFdRH8M-4" style="edgeStyle=orthogonalEdgeStyle;rounded=0;orthogonalLoop=1;jettySize=auto;html=1;exitX=0.5;exitY=0.5;exitDx=0;exitDy=0;exitPerimeter=0;fontColor=#FFFFFF;" parent="1" source="QSJ9sEYADv9X5R9XNO8_-5" edge="1">
          <mxGeometry relative="1" as="geometry">
            <mxPoint x="200" y="290" as="targetPoint" />
          </mxGeometry>
        </mxCell>
        <mxCell id="QSJ9sEYADv9X5R9XNO8_-5" value="responsable" style="shape=umlActor;verticalLabelPosition=bottom;verticalAlign=top;html=1;" parent="1" vertex="1">
          <mxGeometry x="60" y="260" width="30" height="60" as="geometry" />
        </mxCell>
        <mxCell id="C1gEovPb8g20iSFdRH8M-3" style="edgeStyle=orthogonalEdgeStyle;rounded=0;orthogonalLoop=1;jettySize=auto;html=1;exitX=0.5;exitY=0.5;exitDx=0;exitDy=0;exitPerimeter=0;entryX=0;entryY=0.647;entryDx=0;entryDy=0;entryPerimeter=0;fontColor=#FFFFFF;" parent="1" source="QSJ9sEYADv9X5R9XNO8_-6" target="QSJ9sEYADv9X5R9XNO8_-1" edge="1">
          <mxGeometry relative="1" as="geometry" />
        </mxCell>
        <mxCell id="QSJ9sEYADv9X5R9XNO8_-6" value="pizzaiolo" style="shape=umlActor;verticalLabelPosition=bottom;verticalAlign=top;html=1;" parent="1" vertex="1">
          <mxGeometry x="60" y="390" width="30" height="60" as="geometry" />
        </mxCell>
        <mxCell id="C1gEovPb8g20iSFdRH8M-2" style="edgeStyle=orthogonalEdgeStyle;rounded=0;orthogonalLoop=1;jettySize=auto;html=1;exitX=0.5;exitY=0.5;exitDx=0;exitDy=0;exitPerimeter=0;fontColor=#FFFFFF;" parent="1" source="QSJ9sEYADv9X5R9XNO8_-9" edge="1">
          <mxGeometry relative="1" as="geometry">
            <mxPoint x="150" y="420" as="targetPoint" />
          </mxGeometry>
        </mxCell>
        <mxCell id="QSJ9sEYADv9X5R9XNO8_-9" value="livreur" style="shape=umlActor;verticalLabelPosition=bottom;verticalAlign=top;html=1;" parent="1" vertex="1">
          <mxGeometry x="60" y="500" width="30" height="60" as="geometry" />
        </mxCell>
        <mxCell id="QSJ9sEYADv9X5R9XNO8_-10" value="banque" style="shape=umlActor;verticalLabelPosition=bottom;verticalAlign=top;html=1;" parent="1" vertex="1">
          <mxGeometry x="690" y="260" width="30" height="60" as="geometry" />
        </mxCell>
      </root>
    </mxGraphModel>
  </diagram>
  <diagram id="KSADwK6EByX7ZcN8ICJV" name="Page-2">
    <mxGraphModel dx="1662" dy="752" grid="1" gridSize="10" guides="1" tooltips="1" connect="1" arrows="1" fold="1" page="1" pageScale="1" pageWidth="827" pageHeight="1169" math="0" shadow="0">
      <root>
        <mxCell id="C5GiHgU9MNIkv_sx2gws-0" />
        <mxCell id="C5GiHgU9MNIkv_sx2gws-1" parent="C5GiHgU9MNIkv_sx2gws-0" />
        <mxCell id="WtOrFpANJLsokG16fVs8-5" value="" style="rounded=0;whiteSpace=wrap;html=1;fontColor=#FFFFFF;" parent="C5GiHgU9MNIkv_sx2gws-1" vertex="1">
          <mxGeometry x="145" y="300" width="470" height="540" as="geometry" />
        </mxCell>
        <mxCell id="WtOrFpANJLsokG16fVs8-9" value="&lt;font color=&quot;#000000&quot;&gt;gestion&lt;/font&gt;" style="ellipse;whiteSpace=wrap;html=1;fontColor=#FFFFFF;" parent="C5GiHgU9MNIkv_sx2gws-1" vertex="1">
          <mxGeometry x="470" y="505" width="120" height="80" as="geometry" />
        </mxCell>
        <mxCell id="WtOrFpANJLsokG16fVs8-10" value="&lt;font color=&quot;#000000&quot;&gt;compte&lt;/font&gt;" style="ellipse;whiteSpace=wrap;html=1;fontColor=#FFFFFF;" parent="C5GiHgU9MNIkv_sx2gws-1" vertex="1">
          <mxGeometry x="320" y="370" width="120" height="80" as="geometry" />
        </mxCell>
        <mxCell id="YVNkHupCcdB_9lqMYqXx-0" value="&amp;nbsp;commander" style="ellipse;whiteSpace=wrap;html=1;" parent="C5GiHgU9MNIkv_sx2gws-1" vertex="1">
          <mxGeometry x="320" y="650" width="120" height="80" as="geometry" />
        </mxCell>
        <mxCell id="M569ErjREGQJqeHakGio-2" value="" style="endArrow=open;endFill=1;endSize=12;html=1;" edge="1" parent="C5GiHgU9MNIkv_sx2gws-1" target="WtOrFpANJLsokG16fVs8-10">
          <mxGeometry width="160" relative="1" as="geometry">
            <mxPoint x="240" y="505" as="sourcePoint" />
            <mxPoint x="490" y="590" as="targetPoint" />
          </mxGeometry>
        </mxCell>
        <mxCell id="M569ErjREGQJqeHakGio-3" value="access" style="edgeLabel;html=1;align=center;verticalAlign=middle;resizable=0;points=[];" vertex="1" connectable="0" parent="M569ErjREGQJqeHakGio-2">
          <mxGeometry x="0.3167" y="-1" relative="1" as="geometry">
            <mxPoint as="offset" />
          </mxGeometry>
        </mxCell>
        <mxCell id="M569ErjREGQJqeHakGio-5" value="" style="endArrow=open;endFill=1;endSize=12;html=1;exitX=0.5;exitY=0;exitDx=0;exitDy=0;" edge="1" parent="C5GiHgU9MNIkv_sx2gws-1" source="YVNkHupCcdB_9lqMYqXx-0" target="WtOrFpANJLsokG16fVs8-10">
          <mxGeometry width="160" relative="1" as="geometry">
            <mxPoint x="330" y="590" as="sourcePoint" />
            <mxPoint x="490" y="590" as="targetPoint" />
          </mxGeometry>
        </mxCell>
        <mxCell id="M569ErjREGQJqeHakGio-8" value="access" style="edgeLabel;html=1;align=center;verticalAlign=middle;resizable=0;points=[];" vertex="1" connectable="0" parent="M569ErjREGQJqeHakGio-5">
          <mxGeometry x="-0.6316" relative="1" as="geometry">
            <mxPoint as="offset" />
          </mxGeometry>
        </mxCell>
        <mxCell id="M569ErjREGQJqeHakGio-6" value="" style="endArrow=open;endFill=1;endSize=12;html=1;exitX=0;exitY=0;exitDx=0;exitDy=0;entryX=1;entryY=1;entryDx=0;entryDy=0;" edge="1" parent="C5GiHgU9MNIkv_sx2gws-1" source="WtOrFpANJLsokG16fVs8-9" target="WtOrFpANJLsokG16fVs8-10">
          <mxGeometry width="160" relative="1" as="geometry">
            <mxPoint x="330" y="590" as="sourcePoint" />
            <mxPoint x="490" y="590" as="targetPoint" />
          </mxGeometry>
        </mxCell>
        <mxCell id="M569ErjREGQJqeHakGio-7" value="access" style="edgeLabel;html=1;align=center;verticalAlign=middle;resizable=0;points=[];" vertex="1" connectable="0" parent="M569ErjREGQJqeHakGio-6">
          <mxGeometry x="0.3114" y="1" relative="1" as="geometry">
            <mxPoint as="offset" />
          </mxGeometry>
        </mxCell>
        <mxCell id="M569ErjREGQJqeHakGio-9" value="payer" style="ellipse;whiteSpace=wrap;html=1;" vertex="1" parent="C5GiHgU9MNIkv_sx2gws-1">
          <mxGeometry x="165" y="510" width="155" height="80" as="geometry" />
        </mxCell>
        <mxCell id="M569ErjREGQJqeHakGio-10" value="" style="endArrow=open;endFill=1;endSize=12;html=1;" edge="1" parent="C5GiHgU9MNIkv_sx2gws-1" source="M569ErjREGQJqeHakGio-9" target="YVNkHupCcdB_9lqMYqXx-0">
          <mxGeometry width="160" relative="1" as="geometry">
            <mxPoint x="330" y="590" as="sourcePoint" />
            <mxPoint x="490" y="590" as="targetPoint" />
          </mxGeometry>
        </mxCell>
        <mxCell id="M569ErjREGQJqeHakGio-11" value="import" style="edgeLabel;html=1;align=center;verticalAlign=middle;resizable=0;points=[];" vertex="1" connectable="0" parent="M569ErjREGQJqeHakGio-10">
          <mxGeometry x="-0.3778" y="2" relative="1" as="geometry">
            <mxPoint as="offset" />
          </mxGeometry>
        </mxCell>
      </root>
    </mxGraphModel>
  </diagram>
  <diagram id="asGQ-5qCcBj2mnVwzbyl" name="Page-3">
    <mxGraphModel dx="1662" dy="752" grid="1" gridSize="10" guides="1" tooltips="1" connect="1" arrows="1" fold="1" page="1" pageScale="1" pageWidth="827" pageHeight="1169" math="0" shadow="0">
      <root>
        <mxCell id="63-4XnSU4dY7CqPErN7P-0" />
        <mxCell id="63-4XnSU4dY7CqPErN7P-1" parent="63-4XnSU4dY7CqPErN7P-0" />
        <mxCell id="k86hCPn6cuwVdJYb96Ac-0" value="" style="rounded=0;whiteSpace=wrap;html=1;" parent="63-4XnSU4dY7CqPErN7P-1" vertex="1">
          <mxGeometry x="170" y="30" width="570" height="420" as="geometry" />
        </mxCell>
        <mxCell id="k86hCPn6cuwVdJYb96Ac-2" value="livreur" style="shape=umlActor;verticalLabelPosition=bottom;verticalAlign=top;html=1;outlineConnect=0;" parent="63-4XnSU4dY7CqPErN7P-1" vertex="1">
          <mxGeometry x="750" y="210" width="30" height="60" as="geometry" />
        </mxCell>
        <mxCell id="k86hCPn6cuwVdJYb96Ac-3" value="responsable" style="shape=umlActor;verticalLabelPosition=bottom;verticalAlign=top;html=1;outlineConnect=0;" parent="63-4XnSU4dY7CqPErN7P-1" vertex="1">
          <mxGeometry x="750" y="90" width="30" height="60" as="geometry" />
        </mxCell>
        <mxCell id="k86hCPn6cuwVdJYb96Ac-4" value="client" style="shape=umlActor;verticalLabelPosition=bottom;verticalAlign=top;html=1;outlineConnect=0;" parent="63-4XnSU4dY7CqPErN7P-1" vertex="1">
          <mxGeometry x="50" y="260" width="30" height="60" as="geometry" />
        </mxCell>
        <mxCell id="k86hCPn6cuwVdJYb96Ac-5" value="visiteur" style="shape=umlActor;verticalLabelPosition=bottom;verticalAlign=top;html=1;outlineConnect=0;" parent="63-4XnSU4dY7CqPErN7P-1" vertex="1">
          <mxGeometry x="50" y="120" width="30" height="60" as="geometry" />
        </mxCell>
        <mxCell id="FvtT5khaTVEUN9657hCK-1" value="extend" style="edgeStyle=orthogonalEdgeStyle;rounded=0;orthogonalLoop=1;jettySize=auto;html=1;exitX=0.5;exitY=1;exitDx=0;exitDy=0;entryX=0.5;entryY=0;entryDx=0;entryDy=0;" edge="1" parent="63-4XnSU4dY7CqPErN7P-1" source="UxJ5v_lB0qyxJi30VwgJ-0" target="UxJ5v_lB0qyxJi30VwgJ-1">
          <mxGeometry relative="1" as="geometry">
            <Array as="points">
              <mxPoint x="410" y="240" />
              <mxPoint x="410" y="240" />
            </Array>
          </mxGeometry>
        </mxCell>
        <mxCell id="UxJ5v_lB0qyxJi30VwgJ-0" value="crÃ©er un compte" style="ellipse;whiteSpace=wrap;html=1;" parent="63-4XnSU4dY7CqPErN7P-1" vertex="1">
          <mxGeometry x="350" y="130" width="120" height="80" as="geometry" />
        </mxCell>
        <mxCell id="UxJ5v_lB0qyxJi30VwgJ-1" value="se connecter" style="ellipse;whiteSpace=wrap;html=1;" parent="63-4XnSU4dY7CqPErN7P-1" vertex="1">
          <mxGeometry x="350" y="280" width="120" height="80" as="geometry" />
        </mxCell>
        <mxCell id="UxJ5v_lB0qyxJi30VwgJ-7" value="pizzailo" style="shape=umlActor;verticalLabelPosition=bottom;verticalAlign=top;html=1;outlineConnect=0;" parent="63-4XnSU4dY7CqPErN7P-1" vertex="1">
          <mxGeometry x="750" y="370" width="30" height="60" as="geometry" />
        </mxCell>
        <mxCell id="FvtT5khaTVEUN9657hCK-0" value="&lt;span&gt;PACKAGE AUTHENTIFICATION&lt;/span&gt;" style="text;html=1;align=center;verticalAlign=middle;resizable=0;points=[];autosize=1;" vertex="1" parent="63-4XnSU4dY7CqPErN7P-1">
          <mxGeometry x="350" y="50" width="190" height="20" as="geometry" />
        </mxCell>
        <mxCell id="FvtT5khaTVEUN9657hCK-3" value="" style="endArrow=classic;html=1;exitX=0.5;exitY=0.5;exitDx=0;exitDy=0;exitPerimeter=0;" edge="1" parent="63-4XnSU4dY7CqPErN7P-1" source="UxJ5v_lB0qyxJi30VwgJ-7" target="UxJ5v_lB0qyxJi30VwgJ-1">
          <mxGeometry width="50" height="50" relative="1" as="geometry">
            <mxPoint x="740" y="410" as="sourcePoint" />
            <mxPoint x="790" y="360" as="targetPoint" />
          </mxGeometry>
        </mxCell>
        <mxCell id="FvtT5khaTVEUN9657hCK-4" value="" style="endArrow=classic;html=1;" edge="1" parent="63-4XnSU4dY7CqPErN7P-1" target="UxJ5v_lB0qyxJi30VwgJ-1">
          <mxGeometry width="50" height="50" relative="1" as="geometry">
            <mxPoint x="760" y="250" as="sourcePoint" />
            <mxPoint x="800" y="200" as="targetPoint" />
          </mxGeometry>
        </mxCell>
        <mxCell id="FvtT5khaTVEUN9657hCK-5" value="" style="endArrow=classic;html=1;" edge="1" parent="63-4XnSU4dY7CqPErN7P-1" target="UxJ5v_lB0qyxJi30VwgJ-0">
          <mxGeometry width="50" height="50" relative="1" as="geometry">
            <mxPoint x="760" y="250" as="sourcePoint" />
            <mxPoint x="810" y="200" as="targetPoint" />
            <Array as="points" />
          </mxGeometry>
        </mxCell>
        <mxCell id="FvtT5khaTVEUN9657hCK-6" value="" style="endArrow=classic;html=1;" edge="1" parent="63-4XnSU4dY7CqPErN7P-1" target="UxJ5v_lB0qyxJi30VwgJ-1">
          <mxGeometry width="50" height="50" relative="1" as="geometry">
            <mxPoint x="750" y="140" as="sourcePoint" />
            <mxPoint x="800" y="90" as="targetPoint" />
          </mxGeometry>
        </mxCell>
        <mxCell id="FvtT5khaTVEUN9657hCK-7" value="" style="endArrow=classic;html=1;" edge="1" parent="63-4XnSU4dY7CqPErN7P-1" target="UxJ5v_lB0qyxJi30VwgJ-0">
          <mxGeometry width="50" height="50" relative="1" as="geometry">
            <mxPoint x="760" y="130" as="sourcePoint" />
            <mxPoint x="810" y="80" as="targetPoint" />
          </mxGeometry>
        </mxCell>
        <mxCell id="FvtT5khaTVEUN9657hCK-8" value="" style="endArrow=classic;html=1;" edge="1" parent="63-4XnSU4dY7CqPErN7P-1" target="UxJ5v_lB0qyxJi30VwgJ-1">
          <mxGeometry width="50" height="50" relative="1" as="geometry">
            <mxPoint x="80" y="290" as="sourcePoint" />
            <mxPoint x="130" y="240" as="targetPoint" />
          </mxGeometry>
        </mxCell>
        <mxCell id="FvtT5khaTVEUN9657hCK-10" value="" style="endArrow=classic;html=1;entryX=0;entryY=0.5;entryDx=0;entryDy=0;" edge="1" parent="63-4XnSU4dY7CqPErN7P-1" target="UxJ5v_lB0qyxJi30VwgJ-0">
          <mxGeometry width="50" height="50" relative="1" as="geometry">
            <mxPoint x="70" y="150" as="sourcePoint" />
            <mxPoint x="120" y="100" as="targetPoint" />
            <Array as="points" />
          </mxGeometry>
        </mxCell>
        <mxCell id="FvtT5khaTVEUN9657hCK-11" value="" style="endArrow=classic;html=1;" edge="1" parent="63-4XnSU4dY7CqPErN7P-1" target="UxJ5v_lB0qyxJi30VwgJ-0">
          <mxGeometry width="50" height="50" relative="1" as="geometry">
            <mxPoint x="760" y="400" as="sourcePoint" />
            <mxPoint x="810" y="350" as="targetPoint" />
            <Array as="points" />
          </mxGeometry>
        </mxCell>
        <mxCell id="rGbUl_dpvxlcM6gLheOs-0" value="" style="endArrow=block;dashed=1;endFill=0;endSize=12;html=1;" edge="1" parent="63-4XnSU4dY7CqPErN7P-1">
          <mxGeometry width="160" relative="1" as="geometry">
            <mxPoint x="250" y="240" as="sourcePoint" />
            <mxPoint x="410" y="240" as="targetPoint" />
          </mxGeometry>
        </mxCell>
        <mxCell id="rGbUl_dpvxlcM6gLheOs-1" value="point d&#39;extension&#39; utilisateur sans compte" style="html=1;" vertex="1" parent="63-4XnSU4dY7CqPErN7P-1">
          <mxGeometry x="210" y="210" width="110" height="50" as="geometry" />
        </mxCell>
      </root>
    </mxGraphModel>
  </diagram>
  <diagram id="zNdF7Yb14jH6WytTqPRM" name="Page-4">
    <mxGraphModel dx="1662" dy="752" grid="1" gridSize="10" guides="1" tooltips="1" connect="1" arrows="1" fold="1" page="1" pageScale="1" pageWidth="827" pageHeight="1169" math="0" shadow="0">
      <root>
        <mxCell id="iK-c7jj9qpBuWZtnaV4I-0" />
        <mxCell id="iK-c7jj9qpBuWZtnaV4I-1" parent="iK-c7jj9qpBuWZtnaV4I-0" />
        <mxCell id="iK-c7jj9qpBuWZtnaV4I-2" value="prendre commande" style="shape=folder;fontStyle=1;spacingTop=10;tabWidth=40;tabHeight=14;tabPosition=left;html=1;" vertex="1" parent="iK-c7jj9qpBuWZtnaV4I-1">
          <mxGeometry x="130" y="165" width="540" height="480" as="geometry" />
        </mxCell>
        <mxCell id="tXNJbuJ0d7AO0goeCCjh-1" value="client" style="shape=umlActor;verticalLabelPosition=bottom;verticalAlign=top;html=1;" vertex="1" parent="iK-c7jj9qpBuWZtnaV4I-1">
          <mxGeometry x="40" y="310" width="30" height="60" as="geometry" />
        </mxCell>
        <mxCell id="tXNJbuJ0d7AO0goeCCjh-3" value="responsable" style="shape=umlActor;verticalLabelPosition=bottom;verticalAlign=top;html=1;" vertex="1" parent="iK-c7jj9qpBuWZtnaV4I-1">
          <mxGeometry x="740" y="140" width="30" height="60" as="geometry" />
        </mxCell>
        <mxCell id="tXNJbuJ0d7AO0goeCCjh-4" value="livreur" style="shape=umlActor;verticalLabelPosition=bottom;verticalAlign=top;html=1;" vertex="1" parent="iK-c7jj9qpBuWZtnaV4I-1">
          <mxGeometry x="720" y="340" width="30" height="60" as="geometry" />
        </mxCell>
        <mxCell id="tXNJbuJ0d7AO0goeCCjh-6" value="pizzaiolo" style="shape=umlActor;verticalLabelPosition=bottom;verticalAlign=top;html=1;" vertex="1" parent="iK-c7jj9qpBuWZtnaV4I-1">
          <mxGeometry x="730" y="510" width="30" height="60" as="geometry" />
        </mxCell>
        <mxCell id="tXNJbuJ0d7AO0goeCCjh-8" value="commander en ligne" style="ellipse;whiteSpace=wrap;html=1;" vertex="1" parent="iK-c7jj9qpBuWZtnaV4I-1">
          <mxGeometry x="310" y="350" width="140" height="70" as="geometry" />
        </mxCell>
        <mxCell id="tXNJbuJ0d7AO0goeCCjh-9" value="" style="endArrow=open;endFill=1;endSize=12;html=1;entryX=0;entryY=0.5;entryDx=0;entryDy=0;exitX=0.567;exitY=0.7;exitDx=0;exitDy=0;exitPerimeter=0;" edge="1" parent="iK-c7jj9qpBuWZtnaV4I-1" source="tXNJbuJ0d7AO0goeCCjh-1" target="tXNJbuJ0d7AO0goeCCjh-8">
          <mxGeometry width="160" relative="1" as="geometry">
            <mxPoint x="330" y="390" as="sourcePoint" />
            <mxPoint x="490" y="390" as="targetPoint" />
          </mxGeometry>
        </mxCell>
        <mxCell id="tXNJbuJ0d7AO0goeCCjh-10" value="consulter carte" style="ellipse;whiteSpace=wrap;html=1;" vertex="1" parent="iK-c7jj9qpBuWZtnaV4I-1">
          <mxGeometry x="200" y="200" width="140" height="70" as="geometry" />
        </mxCell>
        <mxCell id="tXNJbuJ0d7AO0goeCCjh-11" value="" style="endArrow=open;endFill=1;endSize=12;html=1;exitX=0.5;exitY=1;exitDx=0;exitDy=0;" edge="1" parent="iK-c7jj9qpBuWZtnaV4I-1" source="tXNJbuJ0d7AO0goeCCjh-10" target="tXNJbuJ0d7AO0goeCCjh-8">
          <mxGeometry width="160" relative="1" as="geometry">
            <mxPoint x="330" y="390" as="sourcePoint" />
            <mxPoint x="490" y="390" as="targetPoint" />
          </mxGeometry>
        </mxCell>
        <mxCell id="Nnu8_bUZjKS8j8v6hXgQ-14" value="extend" style="edgeLabel;html=1;align=center;verticalAlign=middle;resizable=0;points=[];" vertex="1" connectable="0" parent="tXNJbuJ0d7AO0goeCCjh-11">
          <mxGeometry x="0.3249" y="-4" relative="1" as="geometry">
            <mxPoint as="offset" />
          </mxGeometry>
        </mxCell>
        <mxCell id="Nnu8_bUZjKS8j8v6hXgQ-0" value="modifier ou annuler commande" style="ellipse;whiteSpace=wrap;html=1;" vertex="1" parent="iK-c7jj9qpBuWZtnaV4I-1">
          <mxGeometry x="290" y="490" width="140" height="70" as="geometry" />
        </mxCell>
        <mxCell id="Nnu8_bUZjKS8j8v6hXgQ-1" value="regarder recettes" style="ellipse;whiteSpace=wrap;html=1;" vertex="1" parent="iK-c7jj9qpBuWZtnaV4I-1">
          <mxGeometry x="460" y="560" width="140" height="70" as="geometry" />
        </mxCell>
        <mxCell id="Nnu8_bUZjKS8j8v6hXgQ-2" value="suivre commande" style="ellipse;whiteSpace=wrap;html=1;" vertex="1" parent="iK-c7jj9qpBuWZtnaV4I-1">
          <mxGeometry x="390" y="230" width="140" height="70" as="geometry" />
        </mxCell>
        <mxCell id="Nnu8_bUZjKS8j8v6hXgQ-3" value="" style="endArrow=open;endFill=1;endSize=12;html=1;exitX=0.243;exitY=0.971;exitDx=0;exitDy=0;exitPerimeter=0;entryX=1;entryY=0;entryDx=0;entryDy=0;" edge="1" parent="iK-c7jj9qpBuWZtnaV4I-1" source="Nnu8_bUZjKS8j8v6hXgQ-2" target="tXNJbuJ0d7AO0goeCCjh-8">
          <mxGeometry width="160" relative="1" as="geometry">
            <mxPoint x="330" y="380" as="sourcePoint" />
            <mxPoint x="490" y="380" as="targetPoint" />
          </mxGeometry>
        </mxCell>
        <mxCell id="Nnu8_bUZjKS8j8v6hXgQ-15" value="include" style="edgeLabel;html=1;align=center;verticalAlign=middle;resizable=0;points=[];" vertex="1" connectable="0" parent="Nnu8_bUZjKS8j8v6hXgQ-3">
          <mxGeometry x="-0.3159" y="3" relative="1" as="geometry">
            <mxPoint as="offset" />
          </mxGeometry>
        </mxCell>
        <mxCell id="Nnu8_bUZjKS8j8v6hXgQ-4" value="" style="endArrow=open;endFill=1;endSize=12;html=1;exitX=0.5;exitY=0.5;exitDx=0;exitDy=0;exitPerimeter=0;entryX=1;entryY=0.5;entryDx=0;entryDy=0;" edge="1" parent="iK-c7jj9qpBuWZtnaV4I-1" source="tXNJbuJ0d7AO0goeCCjh-4" target="Nnu8_bUZjKS8j8v6hXgQ-0">
          <mxGeometry width="160" relative="1" as="geometry">
            <mxPoint x="330" y="380" as="sourcePoint" />
            <mxPoint x="490" y="380" as="targetPoint" />
          </mxGeometry>
        </mxCell>
        <mxCell id="Nnu8_bUZjKS8j8v6hXgQ-5" value="" style="endArrow=open;endFill=1;endSize=12;html=1;" edge="1" parent="iK-c7jj9qpBuWZtnaV4I-1" target="Nnu8_bUZjKS8j8v6hXgQ-0">
          <mxGeometry width="160" relative="1" as="geometry">
            <mxPoint x="750" y="170" as="sourcePoint" />
            <mxPoint x="610" y="340" as="targetPoint" />
          </mxGeometry>
        </mxCell>
        <mxCell id="Nnu8_bUZjKS8j8v6hXgQ-6" value="" style="endArrow=open;endFill=1;endSize=12;html=1;entryX=1;entryY=0.5;entryDx=0;entryDy=0;" edge="1" parent="iK-c7jj9qpBuWZtnaV4I-1" source="tXNJbuJ0d7AO0goeCCjh-6" target="Nnu8_bUZjKS8j8v6hXgQ-1">
          <mxGeometry width="160" relative="1" as="geometry">
            <mxPoint x="500" y="570" as="sourcePoint" />
            <mxPoint x="660" y="570" as="targetPoint" />
          </mxGeometry>
        </mxCell>
        <mxCell id="Nnu8_bUZjKS8j8v6hXgQ-7" value="" style="endArrow=open;endFill=1;endSize=12;html=1;exitX=0.5;exitY=0.5;exitDx=0;exitDy=0;exitPerimeter=0;entryX=0.929;entryY=0.286;entryDx=0;entryDy=0;entryPerimeter=0;" edge="1" parent="iK-c7jj9qpBuWZtnaV4I-1" source="tXNJbuJ0d7AO0goeCCjh-3" target="Nnu8_bUZjKS8j8v6hXgQ-2">
          <mxGeometry width="160" relative="1" as="geometry">
            <mxPoint x="330" y="380" as="sourcePoint" />
            <mxPoint x="490" y="380" as="targetPoint" />
          </mxGeometry>
        </mxCell>
        <mxCell id="Nnu8_bUZjKS8j8v6hXgQ-9" value="" style="endArrow=open;endFill=1;endSize=12;html=1;" edge="1" parent="iK-c7jj9qpBuWZtnaV4I-1" target="Nnu8_bUZjKS8j8v6hXgQ-0">
          <mxGeometry width="160" relative="1" as="geometry">
            <mxPoint x="740" y="540" as="sourcePoint" />
            <mxPoint x="900" y="540" as="targetPoint" />
          </mxGeometry>
        </mxCell>
        <mxCell id="Nnu8_bUZjKS8j8v6hXgQ-10" value="" style="endArrow=open;endFill=1;endSize=12;html=1;exitX=0.586;exitY=0.014;exitDx=0;exitDy=0;entryX=0.25;entryY=0.957;entryDx=0;entryDy=0;entryPerimeter=0;exitPerimeter=0;" edge="1" parent="iK-c7jj9qpBuWZtnaV4I-1" source="Nnu8_bUZjKS8j8v6hXgQ-0" target="tXNJbuJ0d7AO0goeCCjh-8">
          <mxGeometry width="160" relative="1" as="geometry">
            <mxPoint x="330" y="380" as="sourcePoint" />
            <mxPoint x="360" y="390" as="targetPoint" />
          </mxGeometry>
        </mxCell>
        <mxCell id="Nnu8_bUZjKS8j8v6hXgQ-12" value="include" style="edgeLabel;html=1;align=center;verticalAlign=middle;resizable=0;points=[];" vertex="1" connectable="0" parent="Nnu8_bUZjKS8j8v6hXgQ-10">
          <mxGeometry x="-0.2843" y="1" relative="1" as="geometry">
            <mxPoint as="offset" />
          </mxGeometry>
        </mxCell>
        <mxCell id="Nnu8_bUZjKS8j8v6hXgQ-11" value="" style="endArrow=open;endFill=1;endSize=12;html=1;exitX=0.5;exitY=0.5;exitDx=0;exitDy=0;exitPerimeter=0;" edge="1" parent="iK-c7jj9qpBuWZtnaV4I-1" source="tXNJbuJ0d7AO0goeCCjh-1" target="Nnu8_bUZjKS8j8v6hXgQ-0">
          <mxGeometry width="160" relative="1" as="geometry">
            <mxPoint x="70" y="290" as="sourcePoint" />
            <mxPoint x="230" y="290" as="targetPoint" />
          </mxGeometry>
        </mxCell>
        <mxCell id="Nnu8_bUZjKS8j8v6hXgQ-13" value="" style="endArrow=open;endFill=1;endSize=12;html=1;exitX=0.633;exitY=0.667;exitDx=0;exitDy=0;exitPerimeter=0;" edge="1" parent="iK-c7jj9qpBuWZtnaV4I-1" source="tXNJbuJ0d7AO0goeCCjh-1" target="Nnu8_bUZjKS8j8v6hXgQ-2">
          <mxGeometry width="160" relative="1" as="geometry">
            <mxPoint x="330" y="380" as="sourcePoint" />
            <mxPoint x="490" y="380" as="targetPoint" />
          </mxGeometry>
        </mxCell>
        <mxCell id="Nnu8_bUZjKS8j8v6hXgQ-16" value="visiteur" style="shape=umlActor;verticalLabelPosition=bottom;verticalAlign=top;html=1;" vertex="1" parent="iK-c7jj9qpBuWZtnaV4I-1">
          <mxGeometry x="40" y="165" width="30" height="60" as="geometry" />
        </mxCell>
        <mxCell id="Nnu8_bUZjKS8j8v6hXgQ-17" value="" style="endArrow=open;endFill=1;endSize=12;html=1;exitX=0.6;exitY=0.667;exitDx=0;exitDy=0;exitPerimeter=0;" edge="1" parent="iK-c7jj9qpBuWZtnaV4I-1" source="Nnu8_bUZjKS8j8v6hXgQ-16" target="tXNJbuJ0d7AO0goeCCjh-10">
          <mxGeometry width="160" relative="1" as="geometry">
            <mxPoint x="330" y="380" as="sourcePoint" />
            <mxPoint x="490" y="380" as="targetPoint" />
          </mxGeometry>
        </mxCell>
      </root>
    </mxGraphModel>
  </diagram>
</mxfile>
